<?xml version="1.0" standalone="no"?>
<!DOCTYPE svg PUBLIC "-//W3C//DTD SVG 20010904//EN"
 "http://www.w3.org/TR/2001/REC-SVG-20010904/DTD/svg10.dtd">
<svg version="1.0" xmlns="http://www.w3.org/2000/svg"
 width="120.000000pt" height="120.000000pt" viewBox="0 0 120.000000 120.000000"
 preserveAspectRatio="xMidYMid meet">
<metadata>
Created by potrace 1.16, written by Peter Selinger 2001-2019
</metadata>
<g transform="translate(0.000000,120.000000) scale(0.100000,-0.100000)"
fill="#000000" stroke="none">
<path d="M0 600 l0 -600 600 0 600 0 0 600 0 600 -600 0 -600 0 0 -600z m891
537 c49 -33 97 -101 115 -163 19 -67 14 -84 -26 -84 -25 0 -30 -4 -30 -25 0
-21 -5 -25 -29 -25 -24 0 -31 6 -45 44 -24 62 -72 132 -109 158 l-32 23 18
-28 c10 -15 54 -89 98 -165 45 -75 85 -141 89 -145 4 -5 11 6 15 25 11 49 41
103 71 127 33 26 105 29 128 5 18 -17 19 -29 5 -99 -5 -27 -13 -142 -18 -255
-8 -170 -13 -215 -30 -261 -72 -191 -332 -285 -522 -188 -69 34 -258 256 -418
488 -77 112 -70 155 25 160 37 1 45 -3 98 -59 32 -33 59 -60 62 -60 2 0 -29
50 -70 110 -86 127 -92 141 -76 180 9 22 21 31 47 36 49 9 73 -5 143 -88 34
-40 69 -80 77 -88 7 -8 -18 41 -56 110 -56 100 -71 134 -71 167 0 50 17 63 84
63 52 0 55 -2 157 -164 37 -60 71 -111 74 -114 6 -7 -28 71 -74 168 -33 69
-40 120 -18 138 7 6 32 14 54 18 36 5 45 3 65 -18 13 -13 28 -33 35 -44 11
-18 12 -18 12 4 1 17 7 22 29 22 15 0 39 -7 52 -16 l25 -16 -22 20 c-59 52 0
85 68 39z m-711 -646 c29 -54 88 -122 134 -155 45 -31 -15 -62 -67 -35 -21 12
-21 11 -4 -8 9 -11 17 -27 17 -36 0 -22 -50 -23 -89 -3 -59 31 -128 134 -133
198 -3 30 -1 33 29 36 23 2 30 7 26 18 -9 24 5 44 31 44 20 0 31 -11 56 -59z"/>
</g>
</svg>
